<?xml version="1.0" standalone="no"?>
<!DOCTYPE svg PUBLIC "-//W3C//DTD SVG 20010904//EN"
 "http://www.w3.org/TR/2001/REC-SVG-20010904/DTD/svg10.dtd">
<svg version="1.0" xmlns="http://www.w3.org/2000/svg"
 width="128.000000pt" height="128.000000pt" viewBox="0 0 128.000000 128.000000"
 preserveAspectRatio="xMidYMid meet">
<metadata>
Created by potrace 1.11, written by Peter Selinger 2001-2013
</metadata>
<g transform="translate(0.000000,128.000000) scale(0.100000,-0.100000)"
fill="#000000" stroke="none">
<path d="M112 1213 c-32 -13 -38 -56 -36 -248 1 -104 2 -196 3 -203 2 -21 37
-45 158 -107 l118 -60 0 -66 0 -67 -177 -112 -178 -113 0 -88 c0 -49 2 -89 4
-89 3 0 96 59 208 131 345 223 308 193 309 247 1 26 1 53 0 60 -3 19 12 15
103 -33 l86 -45 259 0 c246 0 260 1 285 21 l26 20 0 238 c0 174 -3 242 -13
254 -15 20 -48 32 -407 147 -157 51 -304 98 -328 106 -31 10 -94 14 -225 13
-100 0 -188 -3 -195 -6z m1096 -292 c6 -1 21 -10 32 -21 19 -19 20 -33 20
-205 0 -172 -1 -186 -20 -205 -19 -19 -33 -20 -259 -20 -214 0 -241 2 -261 18
-21 17 -22 25 -22 177 0 220 -1 213 25 238 21 21 27 22 247 20 124 0 231 -1
238 -2z"/>
<path d="M930 832 c-68 -30 -95 -81 -91 -169 2 -43 64 -97 138 -121 84 -28 98
-29 146 -13 98 33 125 179 46 245 -52 44 -193 78 -239 58z m182 -74 c77 -28
79 -146 3 -182 -41 -20 -49 -20 -90 -1 -73 36 -74 144 0 183 24 13 52 13 87 0z"/>
</g>
</svg>
